<mxfile host="app.diagrams.net" modified="2022-08-12T19:18:46.733Z" agent="5.0 (X11)" etag="41iWJQ6kUVtEna6V2w-u" version="20.2.3" type="github">
  <diagram id="OkX3KcsTpLMw8p_l1P4A" name="Page-1">
    <mxGraphModel dx="1374" dy="759" grid="1" gridSize="10" guides="1" tooltips="1" connect="1" arrows="1" fold="1" page="1" pageScale="1" pageWidth="850" pageHeight="1100" math="0" shadow="0">
      <root>
        <mxCell id="0" />
        <mxCell id="1" parent="0" />
        <mxCell id="UPDO5P5rNtbZPPXbk3UU-26" value="" style="shape=document;whiteSpace=wrap;html=1;boundedLbl=1;fontSize=24;" vertex="1" parent="1">
          <mxGeometry x="180" y="434" width="160" height="115.6" as="geometry" />
        </mxCell>
        <mxCell id="UPDO5P5rNtbZPPXbk3UU-2" value="" style="rounded=0;whiteSpace=wrap;html=1;fontSize=30;" vertex="1" parent="1">
          <mxGeometry x="180" y="80" width="620" height="320" as="geometry" />
        </mxCell>
        <mxCell id="UPDO5P5rNtbZPPXbk3UU-6" value="&lt;div style=&quot;font-size: 24px;&quot;&gt;Indexed&lt;/div&gt;&lt;div style=&quot;font-size: 24px;&quot;&gt;&lt;font style=&quot;font-size: 24px;&quot;&gt;DB&lt;/font&gt;&lt;/div&gt;" style="image;html=1;image=img/lib/clip_art/computers/Database_128x128.png;fontSize=40;labelPosition=right;verticalLabelPosition=middle;align=left;verticalAlign=middle;" vertex="1" parent="1">
          <mxGeometry x="620" y="210" width="80" height="80" as="geometry" />
        </mxCell>
        <mxCell id="UPDO5P5rNtbZPPXbk3UU-9" style="edgeStyle=orthogonalEdgeStyle;rounded=0;orthogonalLoop=1;jettySize=auto;html=1;fontSize=30;endArrow=classic;endFill=1;strokeWidth=2;entryX=0;entryY=0.75;entryDx=0;entryDy=0;" edge="1" parent="1" source="UPDO5P5rNtbZPPXbk3UU-10" target="UPDO5P5rNtbZPPXbk3UU-22">
          <mxGeometry relative="1" as="geometry">
            <mxPoint x="180" y="210" as="targetPoint" />
            <Array as="points">
              <mxPoint x="270" y="210" />
              <mxPoint x="270" y="159" />
            </Array>
          </mxGeometry>
        </mxCell>
        <mxCell id="UPDO5P5rNtbZPPXbk3UU-10" value="&lt;font style=&quot;font-size: 24px;&quot;&gt;User&lt;/font&gt;" style="sketch=0;pointerEvents=1;shadow=0;dashed=0;html=1;strokeColor=none;labelPosition=center;verticalLabelPosition=bottom;verticalAlign=top;align=center;fillColor=#505050;shape=mxgraph.mscae.intune.user_management;fontSize=30;" vertex="1" parent="1">
          <mxGeometry x="50" y="178.5" width="70" height="63" as="geometry" />
        </mxCell>
        <mxCell id="UPDO5P5rNtbZPPXbk3UU-12" value="&lt;font style=&quot;font-size: 36px;&quot;&gt;UI&lt;/font&gt;" style="text;html=1;strokeColor=none;fillColor=none;align=center;verticalAlign=middle;whiteSpace=wrap;rounded=0;fontSize=24;" vertex="1" parent="1">
          <mxGeometry x="200" y="90" width="60" height="30" as="geometry" />
        </mxCell>
        <mxCell id="UPDO5P5rNtbZPPXbk3UU-15" style="edgeStyle=orthogonalEdgeStyle;rounded=0;orthogonalLoop=1;jettySize=auto;html=1;entryX=0;entryY=0.5;entryDx=0;entryDy=0;startArrow=classic;startFill=1;strokeWidth=2;" edge="1" parent="1" source="UPDO5P5rNtbZPPXbk3UU-14" target="UPDO5P5rNtbZPPXbk3UU-6">
          <mxGeometry relative="1" as="geometry" />
        </mxCell>
        <mxCell id="UPDO5P5rNtbZPPXbk3UU-20" value="sync" style="edgeLabel;html=1;align=center;verticalAlign=middle;resizable=0;points=[];fontSize=24;" vertex="1" connectable="0" parent="UPDO5P5rNtbZPPXbk3UU-15">
          <mxGeometry x="-0.1707" relative="1" as="geometry">
            <mxPoint x="28" as="offset" />
          </mxGeometry>
        </mxCell>
        <mxCell id="UPDO5P5rNtbZPPXbk3UU-23" style="edgeStyle=orthogonalEdgeStyle;rounded=0;orthogonalLoop=1;jettySize=auto;html=1;entryX=1;entryY=0.5;entryDx=0;entryDy=0;fontSize=24;startArrow=none;startFill=0;strokeWidth=2;" edge="1" parent="1" source="UPDO5P5rNtbZPPXbk3UU-14" target="UPDO5P5rNtbZPPXbk3UU-22">
          <mxGeometry relative="1" as="geometry">
            <Array as="points">
              <mxPoint x="458" y="140" />
            </Array>
          </mxGeometry>
        </mxCell>
        <mxCell id="UPDO5P5rNtbZPPXbk3UU-14" value="&lt;font style=&quot;font-size: 24px;&quot;&gt;Redux&lt;br&gt; state&lt;/font&gt;" style="shape=image;html=1;verticalAlign=top;verticalLabelPosition=bottom;labelBackgroundColor=#ffffff;imageAspect=0;aspect=fixed;image=https://cdn2.iconfinder.com/data/icons/boxicons-logos/24/bxl-redux-128.png" vertex="1" parent="1">
          <mxGeometry x="450" y="241.5" width="76" height="76" as="geometry" />
        </mxCell>
        <mxCell id="UPDO5P5rNtbZPPXbk3UU-17" style="edgeStyle=orthogonalEdgeStyle;rounded=0;orthogonalLoop=1;jettySize=auto;html=1;fontSize=24;startArrow=none;startFill=0;entryX=0;entryY=0.5;entryDx=0;entryDy=0;strokeWidth=2;exitX=1;exitY=0.5;exitDx=0;exitDy=0;" edge="1" parent="1" source="UPDO5P5rNtbZPPXbk3UU-16" target="UPDO5P5rNtbZPPXbk3UU-14">
          <mxGeometry relative="1" as="geometry">
            <mxPoint x="420" y="256.5" as="targetPoint" />
            <Array as="points">
              <mxPoint x="380" y="300" />
              <mxPoint x="380" y="280" />
            </Array>
          </mxGeometry>
        </mxCell>
        <mxCell id="UPDO5P5rNtbZPPXbk3UU-21" value="put" style="edgeLabel;html=1;align=center;verticalAlign=middle;resizable=0;points=[];fontSize=24;" vertex="1" connectable="0" parent="UPDO5P5rNtbZPPXbk3UU-17">
          <mxGeometry x="-0.1524" y="-2" relative="1" as="geometry">
            <mxPoint x="7" as="offset" />
          </mxGeometry>
        </mxCell>
        <mxCell id="UPDO5P5rNtbZPPXbk3UU-19" style="edgeStyle=orthogonalEdgeStyle;rounded=0;orthogonalLoop=1;jettySize=auto;html=1;fontSize=24;startArrow=none;startFill=0;strokeWidth=2;" edge="1" parent="1" source="UPDO5P5rNtbZPPXbk3UU-16" target="UPDO5P5rNtbZPPXbk3UU-18">
          <mxGeometry relative="1" as="geometry" />
        </mxCell>
        <mxCell id="UPDO5P5rNtbZPPXbk3UU-16" value="&lt;font style=&quot;font-size: 24px;&quot;&gt;Data fetching&lt;/font&gt;" style="rounded=1;whiteSpace=wrap;html=1;" vertex="1" parent="1">
          <mxGeometry x="200" y="270" width="120" height="60" as="geometry" />
        </mxCell>
        <mxCell id="UPDO5P5rNtbZPPXbk3UU-18" value="" style="dashed=0;outlineConnect=0;html=1;align=center;labelPosition=center;verticalLabelPosition=bottom;verticalAlign=top;shape=mxgraph.weblogos.wordpress_2;fillColor=#00A7DA;strokeColor=none;fontSize=24;" vertex="1" parent="1">
          <mxGeometry x="225.60000000000002" y="450" width="68.8" height="68.8" as="geometry" />
        </mxCell>
        <mxCell id="UPDO5P5rNtbZPPXbk3UU-24" style="edgeStyle=orthogonalEdgeStyle;rounded=0;orthogonalLoop=1;jettySize=auto;html=1;entryX=1;entryY=0.183;entryDx=0;entryDy=0;entryPerimeter=0;fontSize=24;startArrow=none;startFill=0;strokeWidth=2;dashed=1;" edge="1" parent="1" source="UPDO5P5rNtbZPPXbk3UU-22" target="UPDO5P5rNtbZPPXbk3UU-10">
          <mxGeometry relative="1" as="geometry" />
        </mxCell>
        <mxCell id="UPDO5P5rNtbZPPXbk3UU-25" style="edgeStyle=orthogonalEdgeStyle;rounded=0;orthogonalLoop=1;jettySize=auto;html=1;entryX=0.75;entryY=0;entryDx=0;entryDy=0;fontSize=24;startArrow=none;startFill=0;strokeWidth=2;exitX=0;exitY=1;exitDx=0;exitDy=0;" edge="1" parent="1" source="UPDO5P5rNtbZPPXbk3UU-22" target="UPDO5P5rNtbZPPXbk3UU-16">
          <mxGeometry relative="1" as="geometry" />
        </mxCell>
        <mxCell id="UPDO5P5rNtbZPPXbk3UU-22" value="react" style="shape=image;html=1;verticalAlign=top;verticalLabelPosition=bottom;labelBackgroundColor=#ffffff;imageAspect=0;aspect=fixed;image=https://cdn1.iconfinder.com/data/icons/unicons-line-vol-5/24/react-128.png;fontSize=24;" vertex="1" parent="1">
          <mxGeometry x="330" y="100.5" width="78" height="78" as="geometry" />
        </mxCell>
        <mxCell id="UPDO5P5rNtbZPPXbk3UU-27" value="" style="shape=document;whiteSpace=wrap;html=1;boundedLbl=1;fontSize=24;" vertex="1" parent="1">
          <mxGeometry x="240" y="944" width="160" height="115.6" as="geometry" />
        </mxCell>
        <mxCell id="UPDO5P5rNtbZPPXbk3UU-28" value="" style="rounded=0;whiteSpace=wrap;html=1;fontSize=30;" vertex="1" parent="1">
          <mxGeometry x="180" y="590" width="620" height="320" as="geometry" />
        </mxCell>
        <mxCell id="UPDO5P5rNtbZPPXbk3UU-29" value="&lt;font style=&quot;font-size: 24px;&quot;&gt;Cache API&lt;/font&gt;" style="image;html=1;image=img/lib/clip_art/computers/Database_128x128.png;fontSize=40;labelPosition=right;verticalLabelPosition=middle;align=left;verticalAlign=middle;" vertex="1" parent="1">
          <mxGeometry x="526" y="791.5" width="80" height="80" as="geometry" />
        </mxCell>
        <mxCell id="UPDO5P5rNtbZPPXbk3UU-49" style="edgeStyle=orthogonalEdgeStyle;rounded=0;orthogonalLoop=1;jettySize=auto;html=1;entryX=0;entryY=0.5;entryDx=0;entryDy=0;fontSize=24;startArrow=classic;startFill=1;strokeWidth=2;" edge="1" parent="1" source="UPDO5P5rNtbZPPXbk3UU-31" target="UPDO5P5rNtbZPPXbk3UU-28">
          <mxGeometry relative="1" as="geometry" />
        </mxCell>
        <mxCell id="UPDO5P5rNtbZPPXbk3UU-31" value="&lt;font style=&quot;font-size: 24px;&quot;&gt;User&lt;/font&gt;" style="sketch=0;pointerEvents=1;shadow=0;dashed=0;html=1;strokeColor=none;labelPosition=center;verticalLabelPosition=bottom;verticalAlign=top;align=center;fillColor=#505050;shape=mxgraph.mscae.intune.user_management;fontSize=30;" vertex="1" parent="1">
          <mxGeometry x="50" y="718.5" width="70" height="63" as="geometry" />
        </mxCell>
        <mxCell id="UPDO5P5rNtbZPPXbk3UU-32" value="&lt;font style=&quot;font-size: 36px;&quot;&gt;UI&lt;/font&gt;" style="text;html=1;strokeColor=none;fillColor=none;align=center;verticalAlign=middle;whiteSpace=wrap;rounded=0;fontSize=24;" vertex="1" parent="1">
          <mxGeometry x="200" y="600" width="60" height="30" as="geometry" />
        </mxCell>
        <mxCell id="UPDO5P5rNtbZPPXbk3UU-37" style="edgeStyle=orthogonalEdgeStyle;rounded=0;orthogonalLoop=1;jettySize=auto;html=1;fontSize=24;startArrow=classic;startFill=1;strokeWidth=2;exitX=1;exitY=0.5;exitDx=0;exitDy=0;entryX=0;entryY=0.5;entryDx=0;entryDy=0;exitPerimeter=0;" edge="1" parent="1" source="UPDO5P5rNtbZPPXbk3UU-47" target="UPDO5P5rNtbZPPXbk3UU-29">
          <mxGeometry relative="1" as="geometry">
            <mxPoint x="450" y="789.5" as="targetPoint" />
            <Array as="points">
              <mxPoint x="440" y="832" />
              <mxPoint x="440" y="832" />
            </Array>
          </mxGeometry>
        </mxCell>
        <mxCell id="UPDO5P5rNtbZPPXbk3UU-39" style="edgeStyle=orthogonalEdgeStyle;rounded=0;orthogonalLoop=1;jettySize=auto;html=1;fontSize=24;startArrow=classic;startFill=1;strokeWidth=2;" edge="1" parent="1" source="UPDO5P5rNtbZPPXbk3UU-47" target="UPDO5P5rNtbZPPXbk3UU-41">
          <mxGeometry relative="1" as="geometry" />
        </mxCell>
        <mxCell id="UPDO5P5rNtbZPPXbk3UU-40" value="&lt;font style=&quot;font-size: 24px;&quot;&gt;Assets fetching&lt;/font&gt;" style="rounded=1;whiteSpace=wrap;html=1;" vertex="1" parent="1">
          <mxGeometry x="260" y="710" width="120" height="60" as="geometry" />
        </mxCell>
        <mxCell id="UPDO5P5rNtbZPPXbk3UU-41" value="" style="dashed=0;outlineConnect=0;html=1;align=center;labelPosition=center;verticalLabelPosition=bottom;verticalAlign=top;shape=mxgraph.weblogos.wordpress_2;fillColor=#00A7DA;strokeColor=none;fontSize=24;" vertex="1" parent="1">
          <mxGeometry x="285.6" y="960" width="68.8" height="68.8" as="geometry" />
        </mxCell>
        <mxCell id="UPDO5P5rNtbZPPXbk3UU-47" value="Service&lt;br&gt; worker" style="outlineConnect=0;dashed=0;verticalLabelPosition=middle;verticalAlign=middle;align=left;html=1;shape=mxgraph.aws3.worker;fillColor=#D9A741;gradientColor=none;fontSize=24;labelPosition=right;" vertex="1" parent="1">
          <mxGeometry x="290" y="800" width="60" height="63" as="geometry" />
        </mxCell>
        <mxCell id="UPDO5P5rNtbZPPXbk3UU-48" value="" style="edgeStyle=orthogonalEdgeStyle;rounded=0;orthogonalLoop=1;jettySize=auto;html=1;fontSize=24;startArrow=classic;startFill=1;strokeWidth=2;endArrow=classic;endFill=1;" edge="1" parent="1" source="UPDO5P5rNtbZPPXbk3UU-40" target="UPDO5P5rNtbZPPXbk3UU-47">
          <mxGeometry relative="1" as="geometry">
            <mxPoint x="320" y="840" as="sourcePoint" />
            <mxPoint x="320" y="960" as="targetPoint" />
          </mxGeometry>
        </mxCell>
        <mxCell id="UPDO5P5rNtbZPPXbk3UU-50" value="" style="shape=image;html=1;verticalAlign=top;verticalLabelPosition=bottom;labelBackgroundColor=#ffffff;imageAspect=0;aspect=fixed;image=https://cdn1.iconfinder.com/data/icons/unicons-line-vol-5/24/react-128.png;fontSize=24;" vertex="1" parent="1">
          <mxGeometry x="280.5" y="630" width="79" height="79" as="geometry" />
        </mxCell>
      </root>
    </mxGraphModel>
  </diagram>
</mxfile>
